<svg width="162" height="116" viewBox="0 0 162 116" fill="none" xmlns="http://www.w3.org/2000/svg">
<mask id="mask0_406_3" style="mask-type:luminance" maskUnits="userSpaceOnUse" x="38" y="9" width="87" height="99">
<path d="M79.2197 9.79047L40.6385 31.8464C39.1934 32.6717 38.3027 34.2029 38.2958 35.862L38.1115 80.324C38.1046 81.984 38.9826 83.5215 40.4207 84.3589L78.8204 106.751C80.2558 107.586 82.03 107.593 83.4705 106.771L122.048 84.6974C123.486 83.8719 124.378 82.3408 124.385 80.6817L124.57 36.2197C124.577 34.5606 123.697 33.0221 122.257 32.1848L83.8689 9.80975C83.1489 9.39291 82.3458 9.1822 81.5418 9.17886C80.7379 9.17553 79.9331 9.37957 79.2096 9.79043" fill="white"/>
</mask>
<g mask="url(#mask0_406_3)">
<path d="M136.689 82.7019C151.494 52.8135 139.267 16.5818 109.378 1.77729V1.77729C79.4901 -13.0266 43.2605 -0.799382 28.4558 29.0878L25.9886 34.0685C11.1837 63.9562 23.4106 100.187 53.2982 114.992V114.992C83.1857 129.797 119.416 117.57 134.221 87.6826L136.689 82.7019Z" fill="#16957E"/>
</g>
<path d="M77.3964 32.9658L87.7336 50.6283M87.7336 50.6283L97 78.9658M87.7336 50.6283L65 78.9658" stroke="white" stroke-width="15" stroke-linecap="round"/>
<path d="M33 8C-8.89804 40.5266 9.4744 93.2907 33 108" stroke="#16957E" stroke-width="15" stroke-linecap="round"/>
<path d="M140.117 107C167.68 68.9931 148.812 22.5598 130 12.8598" stroke="#16957E" stroke-width="15" stroke-linecap="round"/>
</svg>
